<?xml version="1.0" ?><svg viewBox="0 0 64 64" xmlns="http://www.w3.org/2000/svg"><g id="sleep"><circle cx="59" cy="48" r="1"/><circle cx="9" cy="7" r="1"/><path d="M6.7,15.4561a1,1,0,0,0-1.4141,0l-.7668.7669-.7669-.7669a1,1,0,1,0-1.414,1.414l.7669.7671-.7669.7671a1,1,0,1,0,1.414,1.4141l.7669-.767.7668.767A1,1,0,1,0,6.7,18.4043l-.767-.7671L6.7,16.87A1,1,0,0,0,6.7,15.4561Z"/><path d="M17,10a3,3,0,1,0-3-3A3.0033,3.0033,0,0,0,17,10Zm0-4a1,1,0,1,1-1,1A1.0013,1.0013,0,0,1,17,6Z"/><path d="M32,11A24,24,0,1,0,56,35,24.0275,24.0275,0,0,0,32,11Zm0,46A22,22,0,1,1,54,35,22.0248,22.0248,0,0,1,32,57Z"/><path d="M28.0449,28.43a1,1,0,0,0,.9029.57H33a1,1,0,0,0,0-2H31.0454l2.7315-3.3706A1,1,0,0,0,33,22H29a1,1,0,0,0,0,2h1.9023l-2.7314,3.3706A1,1,0,0,0,28.0449,28.43Z"/><path d="M41,21H39.0454l2.7315-3.3706A1,1,0,0,0,41,16H37a1,1,0,0,0,0,2h1.9023l-2.7314,3.3706A1,1,0,0,0,36.9478,23H41a1,1,0,0,0,0-2Z"/><path d="M46.0449,13.43a1,1,0,0,0,.9029.57H51a1,1,0,0,0,0-2H49.0454l2.7315-3.3706A1,1,0,0,0,51,7H47a1,1,0,0,0,0,2h1.9023l-2.7314,3.3706A1,1,0,0,0,46.0449,13.43Z"/><path d="M27.9556,36.6094a1,1,0,0,0-1.9112-.5889,1.1075,1.1075,0,0,1-2.1015.042,1,1,0,0,0-1.8858.667,3.1076,3.1076,0,0,0,5.8985-.12Z"/><path d="M41.2944,35.3594a.9974.9974,0,0,0-1.25.6611,1.1075,1.1075,0,0,1-2.1015.042,1,1,0,1,0-1.8858.667,3.1076,3.1076,0,0,0,5.8985-.12A1,1,0,0,0,41.2944,35.3594Z"/><path d="M32,45c-2.89,0-6,.939-6,3s3.11,3,6,3,6-.939,6-3S34.89,45,32,45Z"/></g></svg>